<svg id="visual" viewBox="0 0 900 600" width="900" height="600" xmlns="http://www.w3.org/2000/svg" xmlns:xlink="http://www.w3.org/1999/xlink" version="1.1"><path d="M0 115L82 115L82 109L164 109L164 115L245 115L245 55L327 55L327 85L409 85L409 91L491 91L491 97L573 97L573 73L655 73L655 61L736 61L736 85L818 85L818 85L900 85L900 73L900 0L900 0L818 0L818 0L736 0L736 0L655 0L655 0L573 0L573 0L491 0L491 0L409 0L409 0L327 0L327 0L245 0L245 0L164 0L164 0L82 0L82 0L0 0Z" fill="#fa7268"></path><path d="M0 337L82 337L82 379L164 379L164 247L245 247L245 235L327 235L327 259L409 259L409 313L491 313L491 259L573 259L573 277L655 277L655 157L736 157L736 265L818 265L818 307L900 307L900 253L900 71L900 83L818 83L818 83L736 83L736 59L655 59L655 71L573 71L573 95L491 95L491 89L409 89L409 83L327 83L327 53L245 53L245 113L164 113L164 107L82 107L82 113L0 113Z" fill="#ea5e66"></path><path d="M0 397L82 397L82 445L164 445L164 289L245 289L245 283L327 283L327 349L409 349L409 367L491 367L491 325L573 325L573 379L655 379L655 193L736 193L736 349L818 349L818 391L900 391L900 349L900 251L900 305L818 305L818 263L736 263L736 155L655 155L655 275L573 275L573 257L491 257L491 311L409 311L409 257L327 257L327 233L245 233L245 245L164 245L164 377L82 377L82 335L0 335Z" fill="#d84a64"></path><path d="M0 517L82 517L82 511L164 511L164 439L245 439L245 421L327 421L327 457L409 457L409 529L491 529L491 433L573 433L573 475L655 475L655 373L736 373L736 433L818 433L818 523L900 523L900 499L900 347L900 389L818 389L818 347L736 347L736 191L655 191L655 377L573 377L573 323L491 323L491 365L409 365L409 347L327 347L327 281L245 281L245 287L164 287L164 443L82 443L82 395L0 395Z" fill="#c53762"></path><path d="M0 601L82 601L82 601L164 601L164 601L245 601L245 601L327 601L327 601L409 601L409 601L491 601L491 601L573 601L573 601L655 601L655 601L736 601L736 601L818 601L818 601L900 601L900 601L900 497L900 521L818 521L818 431L736 431L736 371L655 371L655 473L573 473L573 431L491 431L491 527L409 527L409 455L327 455L327 419L245 419L245 437L164 437L164 509L82 509L82 515L0 515Z" fill="#b0235f"></path></svg>